<?xml version="1.0" encoding="UTF-8" standalone="no"?>
<svg
   xmlns:dc="http://purl.org/dc/elements/1.1/"
   xmlns:cc="http://creativecommons.org/ns#"
   xmlns:rdf="http://www.w3.org/1999/02/22-rdf-syntax-ns#"
   xmlns:svg="http://www.w3.org/2000/svg"
   xmlns="http://www.w3.org/2000/svg"
   xmlns:sodipodi="http://sodipodi.sourceforge.net/DTD/sodipodi-0.dtd"
   xmlns:inkscape="http://www.inkscape.org/namespaces/inkscape"
   version="1.1"
   id="Layer_1"
   x="0px"
   y="0px"
   width="500"
   height="500"
   viewBox="0 0 500 500"
   enable-background="new 0 0 500 500"
   xml:space="preserve"
   inkscape:version="1.0.1 (3bc2e813f5, 2020-09-07)"
   sodipodi:docname="Escudo_del_Cruz_Azul_AC.svg"><title
   id="title3062">Deportivo Cruz Azul de México logo</title><metadata
   id="metadata85"><rdf:RDF><cc:Work
       rdf:about=""><dc:format>image/svg+xml</dc:format><dc:type
         rdf:resource="http://purl.org/dc/dcmitype/StillImage" /><dc:title>Deportivo Cruz Azul de México logo</dc:title></cc:Work></rdf:RDF></metadata><defs
   id="defs83" /><sodipodi:namedview
   pagecolor="#ffffff"
   bordercolor="#666666"
   borderopacity="1"
   objecttolerance="10"
   gridtolerance="10"
   guidetolerance="10"
   inkscape:pageopacity="0"
   inkscape:pageshadow="2"
   inkscape:window-width="1366"
   inkscape:window-height="715"
   id="namedview81"
   showgrid="false"
   inkscape:zoom="0.61454449"
   inkscape:cx="308.59689"
   inkscape:cy="430.60366"
   inkscape:window-x="-8"
   inkscape:window-y="-8"
   inkscape:window-maximized="1"
   inkscape:current-layer="Layer_1"
   inkscape:document-rotation="0"
   showguides="true"
   inkscape:guide-bbox="true"
   fit-margin-top="0"
   fit-margin-left="0"
   fit-margin-right="0"
   fit-margin-bottom="0" />







































<g
   id="g1613"><circle
     fill="#ffffff"
     cx="250"
     cy="250"
     r="250"
     id="circle46" /><path
     fill="#e31837"
     d="M 344.26203,344.2625 H 155.73704 v -188.525 h 188.52499 z m -94.263,-172.131 c -43.006,0 -77.869,34.863 -77.869,77.869 0,43.006 34.862,77.869 77.869,77.869 43.005,0 77.868,-34.863 77.868,-77.869 0,-43.005 -34.863,-77.869 -77.868,-77.869 z"
     id="path48" /><polygon
     fill="#06357a"
     points="188.524,229.509 188.524,270.491 229.508,270.491 229.508,311.476 270.491,311.476 270.491,270.491 311.475,270.491 311.475,229.509 270.491,229.509 270.491,188.524 229.508,188.524 229.508,229.509 "
     id="polygon50"
     transform="translate(4e-5)" /><path
     fill="#06357a"
     d="m 334.97403,350.775 v -5.248 h 1.789 l 0.658,3.1 h 0.014 l 0.677,-3.1 h 1.774 v 5.248 h -1.209 l 0.13,-4.114 h -0.017 l -0.896,4.114 h -0.941 l -0.874,-4.114 h -0.014 l 0.115,4.114 z"
     id="path52" /><path
     fill="#06357a"
     d="m 342.03403,350.775 h -1.269 v -5.248 h 1.856 c 1.034,0 1.553,0.407 1.553,1.448 0,0.558 -0.135,0.958 -0.668,1.196 v 0.015 c 0.352,0.077 0.606,0.314 0.628,0.678 0.034,0.419 0.041,1.323 0.115,1.658 0.029,0.072 0.066,0.133 0.121,0.182 v 0.07 h -1.384 c -0.037,-0.098 -0.063,-0.196 -0.072,-0.301 -0.021,-0.46 0.01,-0.894 -0.028,-1.218 -0.041,-0.32 -0.14,-0.529 -0.431,-0.551 h -0.421 z m 0,-3.016 h 0.433 c 0.367,0 0.456,-0.327 0.456,-0.648 0,-0.626 -0.267,-0.652 -0.889,-0.638 z"
     id="path54" /><path
     fill="#06357a"
     d="m 155.72904,147.54 v -32.783 l 8.491,-0.001 c 2.75399,0.004 6.10299,0.076 8.64799,1.544 v 0 c 3.061,1.802 3.539,5.088 3.535,8.193 v 0 14.303 c -0.038,3.27 -1.062,5.761 -3.352,7.194 v 0 c -2.058,1.34 -4.522,1.55 -6.856,1.551 v 0 h -10.46599 z m 8.858,-6.339 c 1.71099,-0.002 2.59199,-0.37 3.07599,-1.014 v 0 c 0.494,-0.646 0.638,-1.706 0.635,-3.17 v 0 c 0,-0.481 -0.014,-1.004 -0.031,-1.574 v 0 -10.518 c -0.023,-1.873 -0.343,-2.745 -0.996,-3.19 v 0 c -0.625,-0.442 -1.729,-0.555 -3.40599,-0.597 v 0 20.043 c 0.255,0.014 0.495,0.02 0.722,0.02 z"
     id="path56" /><path
     fill="#06357a"
     d="m 178.53503,147.54 v -32.784 h 17.883 v 7.021 h -9.748 v 5.347 h 9.447 v 7.02 h -9.447 v 6.377 h 10.263 v 7.02 h -18.398 z"
     id="path58" /><path
     fill="#06357a"
     d="m 199.03503,147.54 v -32.783 h 9.263 c 2.934,0.01 7.208,0.228 9.448,2.758 v 0 c 1.831,2.055 2.178,4.553 2.177,7.192 v 0 c 10e-4,3.506 -0.815,7.559 -4.412,9.233 v 0 c -2.637,1.29 -5.617,0.953 -8.341,1.049 v 0 12.55 h -8.135 z m 8.135,-18.919 c 1.354,-0.016 2.765,0.049 3.763,-0.732 v 0 c 0.679,-0.762 0.858,-1.97 0.854,-3.052 v 0 c 0.015,-1.24 -0.176,-3.013 -1.224,-3.463 v 0 c -0.65,-0.233 -1.667,-0.244 -2.868,-0.241 v 0 h -0.526 v 7.488 z"
     id="path60" /><path
     fill="#06357a"
     d="m 231.98003,148.313 c -3.864,0.002 -6.543,-0.959 -8.237,-2.896 v 0 c -1.691,-1.935 -2.357,-4.769 -2.358,-8.428 v 0 -13.097 c 0,-3.147 0.945,-5.645 2.766,-7.339 v 0 c 1.818,-1.697 4.475,-2.57 7.83,-2.569 v 0 c 3.354,-10e-4 5.98,0.872 7.768,2.57 v 0 c 1.787,1.698 2.7,4.194 2.697,7.338 v 0 13.097 c -0.001,3.657 -0.633,6.49 -2.292,8.426 v 0 c -1.66,1.936 -4.305,2.897 -8.16,2.897 v 0 c 0,10e-4 -0.01,10e-4 -0.014,10e-4 z m -2.033,-26.697 c -0.347,0.765 -0.427,1.818 -0.427,2.791 v 0 13.226 c 0,0.907 0.079,2.027 0.435,2.88 v 0 c 0.369,0.852 0.921,1.415 2.025,1.425 v 0 c 1.103,-0.013 1.617,-0.566 1.957,-1.418 v 0 c 0.326,-0.85 0.374,-1.973 0.374,-2.887 v 0 -13.226 c 0,-0.978 -0.049,-2.034 -0.374,-2.796 v 0 c -0.337,-0.757 -0.851,-1.237 -1.999,-1.251 v 0 c -1.104,0.012 -1.634,0.494 -1.991,1.256 z"
     id="path62" /><path
     fill="#06357a"
     d="m 257.96903,147.54 -0.068,-0.192 c -0.218,-0.612 -0.399,-1.241 -0.446,-1.931 v 0 c -0.049,-1.07 -0.055,-2.113 -0.055,-3.102 v 0 c -0.001,-0.33 -0.001,-0.653 -0.001,-0.97 v 0 c 0.001,-1.264 -0.01,-2.416 -0.115,-3.381 v 0 c -0.24,-1.96 -0.731,-3.006 -2.289,-3.134 v 0 h -2.201 v 12.421 0.289 h -8.135 v -32.784 h 11.325 c 3.125,0 5.525,0.627 7.152,2.121 v 0 c 1.626,1.496 2.413,3.817 2.412,7.057 v 0 c 0.017,3.255 -0.763,5.785 -3.59,7.32 v 0 c 1.874,0.627 3.214,2.123 3.331,4.249 v 0 c 0.212,2.58 0.262,8.096 0.675,10.115 v 0 c 0.161,0.4 0.353,0.732 0.643,0.986 v 0 l 0.1,0.085 v 0.132 0.718 h -8.738 z m -2.888,-19.086 c 1.003,-0.009 1.545,-0.427 1.919,-1.104 v 0 c 0.367,-0.679 0.499,-1.638 0.498,-2.6 v 0 c -0.001,-1.694 -0.32,-2.564 -0.902,-3.024 v 0 c -0.583,-0.475 -1.579,-0.613 -3.04,-0.609 v 0 c -0.242,0 -0.496,0.003 -0.761,0.008 v 0 7.329 z"
     id="path64" /><path
     fill="#06357a"
     d="m 272.11003,147.54 v -25.765 h -5.926 v -6.729 -0.29 h 20.16 v 7.019 h -6.098 v 25.765 z"
     id="path66" /><path
     fill="#06357a"
     d="m 288.72103,147.54 v -32.783 h 8.134 v 32.783 z"
     id="path68" /><path
     fill="#06357a"
     d="m 306.02703,147.54 -7.123,-32.784 h 8.16 l 3.664,21.413 3.663,-21.413 h 8.161 l -7.167,32.784 z"
     id="path70" /><path
     fill="#06357a"
     d="m 333.82603,148.313 c -3.862,0.002 -6.542,-0.959 -8.237,-2.896 v 0 c -1.69,-1.935 -2.357,-4.77 -2.358,-8.43 v 0 -13.097 c -10e-4,-3.147 0.945,-5.644 2.765,-7.339 v 0 c 1.819,-1.695 4.476,-2.568 7.83,-2.568 v 0 c 3.354,0 5.981,0.873 7.768,2.57 v 0 c 1.788,1.697 2.699,4.193 2.698,7.337 v 0 13.097 c 0,3.658 -0.633,6.491 -2.292,8.427 v 0 c -1.659,1.936 -4.304,2.898 -8.159,2.898 v 0 c -0.01,10e-4 -0.01,10e-4 -0.015,10e-4 z m -2.034,-26.698 c -0.346,0.766 -0.428,1.819 -0.425,2.792 v 0 13.227 c -10e-4,0.905 0.078,2.026 0.434,2.878 v 0 c 0.37,0.852 0.921,1.415 2.025,1.426 v 0 c 1.104,-0.013 1.617,-0.566 1.958,-1.418 v 0 c 0.326,-0.85 0.375,-1.974 0.374,-2.886 v 0 -13.227 c 10e-4,-0.978 -0.049,-2.034 -0.375,-2.796 v 0 c -0.337,-0.758 -0.849,-1.236 -1.999,-1.25 v 0 c -1.103,0.01 -1.635,0.493 -1.992,1.254 z"
     id="path72" /><path
     fill="#06357a"
     d="m 158.18504,383.376 c -1.629,-1.842 -2.316,-4.51 -2.317,-7.863 v 0 -13.359 c 0,-3.575 0.823,-6.254 2.582,-8.038 v 0 c 1.762,-1.783 4.411,-2.619 7.94299,-2.619 v 0 c 3.291,10e-4 5.966,0.701 7.831,2.287 v 0 c 1.868,1.587 2.871,4.043 2.867,7.415 v 0 3.021 h -8.211 v -2.371 c 0,-1.354 -0.247,-2.358 -0.636,-2.995 v 0 c -0.394,-0.636 -0.889,-0.917 -1.511,-0.924 v 0 c -0.04,-0.001 -0.074,-0.002 -0.108,-0.002 v 0 c -1.097,0.006 -1.682,0.297 -2.04199,0.789 v 0 c -0.362,0.496 -0.505,1.283 -0.503,2.308 v 0 l -0.043,16.091 c 0.049,1.751 0.576,2.573 2.44399,2.617 v 0 c 1.191,-0.015 1.751,-0.567 2.117,-1.416 v 0 c 0.353,-0.851 0.414,-1.995 0.412,-2.981 v 0 -3.236 h 8.213 v 4.282 c 0.001,2.848 -0.822,5.315 -2.673,7.057 v 0 c -1.848,1.74 -4.685,2.729 -8.634,2.729 v 0 c -3.55999,0.002 -6.10199,-0.95 -7.73099,-2.792 z"
     id="path74" /><path
     fill="#06357a"
     d="m 193.86103,385.388 -0.068,-0.192 c -0.221,-0.619 -0.405,-1.253 -0.45,-1.949 v 0 c -0.05,-1.083 -0.056,-2.138 -0.056,-3.137 v 0 c 0,-0.333 0,-0.658 0,-0.978 v 0 c 0,-1.277 -0.011,-2.44 -0.116,-3.416 v 0 c -0.242,-1.98 -0.741,-3.04 -2.315,-3.168 v 0 h -2.227 v 12.549 0.288 h -8.212 v -33.107 h 11.437 c 3.157,10e-4 5.58,0.633 7.223,2.142 v 0 c 1.641,1.511 2.437,3.853 2.435,7.127 v 0 c 0.017,3.288 -0.771,5.841 -3.629,7.394 v 0 c 1.896,0.632 3.251,2.143 3.369,4.29 v 0 c 0.214,2.608 0.265,8.186 0.683,10.222 v 0 c 0.163,0.403 0.357,0.737 0.649,0.992 v 0 l 0.099,0.086 v 0.133 0.723 h -8.822 z m -5.232,-19.273 2.313,-0.001 c 1.014,-0.009 1.563,-0.432 1.941,-1.115 v 0 c 0.371,-0.687 0.504,-1.657 0.502,-2.629 v 0 c -0.001,-1.712 -0.324,-2.59 -0.914,-3.058 v 0 c -0.588,-0.479 -1.595,-0.62 -3.072,-0.615 v 0 c -0.245,0 -0.502,0.003 -0.771,0.009 v 0 7.409 z"
     id="path76" /><path
     fill="#06357a"
     d="m 214.85803,386.167 c -3.274,0 -5.912,-0.779 -7.736,-2.45 v 0 c -1.826,-1.672 -2.791,-4.207 -2.789,-7.598 v 0 -23.551 -0.29 h 8.212 v 24.839 c 0.049,1.526 0.35,2.58 2.357,2.616 v 0 c 1.774,-0.003 2.29,-1.498 2.313,-2.832 v 0 -24.623 h 8.211 v 23.841 c 0,2.793 -0.626,5.313 -2.288,7.139 v 0 c -1.66,1.826 -4.323,2.909 -8.268,2.909 v 0 c 0,0 -0.01,0 -0.012,0 z"
     id="path78" /><path
     fill="#06357a"
     d="m 227.92003,385.388 v -6.169 l 9.46,-19.856 h -8.766 v -6.795 -0.288 h 17.841 v 6.426 l -9.288,19.597 h 9.721 v 7.085 z"
     id="path80" /><path
     fill="#06357a"
     d="m 269.34203,385.388 -1.083,-6.334 h -5.492 l -0.91,6.334 h -8.289 l 7.242,-33.108 h 9.659 l 7.197,33.108 z m -5.664,-12.638 h 3.754 l -1.839,-12.613 z"
     id="path82" /><path
     fill="#06357a"
     d="m 279.14803,385.388 v -6.169 l 9.46,-19.856 h -8.766 v -6.795 -0.289 h 17.84 v 6.427 l -9.288,19.597 h 9.722 v 7.085 z"
     id="path84" /><path
     fill="#06357a"
     d="m 311.45903,386.167 c -3.274,0 -5.912,-0.779 -7.736,-2.45 v 0 c -1.825,-1.672 -2.79,-4.207 -2.789,-7.598 v 0 -23.551 -0.29 h 8.213 v 24.839 c 0.051,1.526 0.35,2.58 2.358,2.616 v 0 c 1.774,-0.003 2.29,-1.498 2.311,-2.832 v 0 -24.623 h 8.214 v 23.841 c 0,2.793 -0.626,5.313 -2.288,7.139 v 0 c -1.66,1.826 -4.324,2.909 -8.268,2.909 v 0 c 0,0 -0.01,0 -0.014,0 z"
     id="path86" /><path
     fill="#06357a"
     d="M 326.21003,385.387 V 352.28 h 8.212 v 26.024 h 9.327 v 7.083 z"
     id="path88" /><path
     fill="#06357a"
     d="m 491.80303,250 c 0,133.544 -108.26,241.804 -241.803,241.804 C 116.45504,491.804 8.19604,383.544 8.19604,250 c 0,-133.544 108.259,-241.804 241.80399,-241.804 133.543,0 241.803,108.26 241.803,241.804 z M 250.00003,65.573 C 148.14404,65.573 65.57304,148.145 65.57304,250 c 0,101.855 82.571,184.425 184.42699,184.425 101.854,0 184.425,-82.57 184.425,-184.425 0,-101.855 -82.571,-184.427 -184.425,-184.427 z"
     id="path90" /><path
     fill="#06357a"
     d="m 335.06403,350.747 v -5.202 h 1.72 l 0.63,3.073 h 0.015 l 0.651,-3.073 h 1.706 v 5.202 h -1.165 l 0.125,-4.078 h -0.013 l -0.86,4.078 h -0.91 l -0.838,-4.078 h -0.014 l 0.11,4.078 z"
     id="path108" /><path
     fill="#06357a"
     d="m 341.94803,350.747 h -1.221 v -5.202 h 1.782 c 1,0 1.499,0.402 1.499,1.436 0,0.555 -0.132,0.951 -0.645,1.186 v 0.015 c 0.338,0.076 0.582,0.313 0.604,0.672 0.035,0.417 0.041,1.312 0.11,1.645 0.028,0.07 0.062,0.132 0.117,0.18 v 0.069 h -1.331 c -0.035,-0.097 -0.062,-0.194 -0.069,-0.297 -0.021,-0.458 0.01,-0.888 -0.028,-1.207 -0.034,-0.319 -0.131,-0.527 -0.416,-0.548 h -0.402 z m 0,-2.989 h 0.416 c 0.354,0 0.438,-0.325 0.438,-0.644 0,-0.618 -0.257,-0.646 -0.854,-0.632 z"
     id="path110" /><path
     fill="#ffffff"
     d="m 91.01204,413.396 17.691,-20.829 8.607,7.312 -7.292,14.985 0.069,0.06 13.712,-9.532 8.538,7.253 -17.69,20.828 -5.831,-4.953 14.495,-15.799 -0.07,-0.06 -18.173,12.674 -4.546,-3.862 9.67,-19.897 -0.069,-0.059 -13.315,16.801 z"
     id="path112" /><path
     fill="#ffffff"
     d="m 154.57504,456.742 10.43699,-25.255 16.96,7.013 -2.087,5.051 -9.553,-3.95 -1.92,4.647 9.259,3.829 -2.087,5.051 -9.259,-3.829 -2.25499,5.456 10.05899,4.159 -2.088,5.051 z"
     id="path114" /><path
     fill="#ffffff"
     d="m 228.85303,457.381 0.09,0.008 4.458,-7.899 7.975,0.805 -8.442,12.918 6.02,14.302 -7.976,-0.804 -3.033,-8.509 -0.09,-0.01 -5.35,7.664 -7.613,-0.769 8.934,-12.794 -5.786,-14.353 7.93,0.799 z"
     id="path116" /><path
     fill="#ffffff"
     d="m 283.62403,475.025 -4.48,-26.958 7.907,-1.313 4.48,26.957 z"
     id="path118" /><path
     fill="#ffffff"
     d="m 340.63003,439.156 -0.735,-1.585 c -0.981,-2.116 -2.438,-2.767 -3.801,-2.134 -2.288,1.021 -2.365,2.261 -1.614,3.881 l 5.646,12.283 c 0.643,1.388 1.729,1.889 3.629,1.008 2.479,-1.149 1.735,-3.294 1.03,-4.815 l -1.042,-2.248 7.271,-3.372 1.411,3.041 c 1.977,4.265 0.299,8.657 -7.138,12.105 -6.693,3.104 -10.614,1.468 -12.959,-3.59 l -4.722,-10.181 c -2.498,-5.389 -0.564,-9.338 6.087,-12.423 6.197,-2.873 10.896,-2.482 13.242,2.576 l 0.966,2.083 z"
     id="path120" /><path
     fill="#ffffff"
     d="m 403.84003,405.895 c 4.104,4.59 4.237,8.771 -1.808,14.173 -6.044,5.402 -10.287,4.894 -14.391,0.303 l -7.407,-8.285 c -3.498,-3.911 -2.519,-8.694 2.709,-13.368 5.23,-4.673 9.991,-5.019 13.488,-1.107 z m -13.092,-2.618 c -1.117,-1.25 -2.589,-2.622 -4.559,-0.862 -1.901,1.699 -0.803,3.406 0.314,4.656 l 7.479,8.365 c 1.044,1.167 2.837,2.693 4.771,0.964 1.936,-1.729 0.518,-3.589 -0.527,-4.757 z"
     id="path122" /><path
     id="use1521"
     style="fill:#ffffff;fill-opacity:1"
     inkscape:transform-center-y="-214.0152"
     d="M 249.99219 19.027344 L 245.64453 32.427734 L 231.55664 32.435547 L 242.95898 40.708984 L 238.61133 54.115234 L 250.00586 45.826172 L 261.41016 54.101562 L 257.04883 40.703125 L 268.44336 32.414062 L 254.35352 32.421875 L 249.99219 19.027344 z M 338.60547 36.650391 L 329.46094 47.367188 L 316.44336 41.982422 L 323.81055 53.990234 L 314.66406 64.712891 L 328.36523 61.416016 L 335.73438 73.423828 L 336.83008 59.376953 L 350.5293 56.080078 L 337.50977 50.695312 L 338.60547 36.650391 z M 161.37891 36.65625 L 162.49023 50.701172 L 149.47656 56.099609 L 163.17773 59.378906 L 164.29297 73.429688 L 171.64844 61.410156 L 185.34961 64.691406 L 176.19336 53.982422 L 183.54883 41.962891 L 170.5332 47.363281 L 161.37891 36.65625 z M 108.77148 83.273438 L 98.8125 93.242188 L 86.255859 86.853516 L 92.658203 99.404297 L 82.701172 109.37109 L 96.615234 107.16016 L 103.02148 119.71289 L 105.2168 105.79297 L 119.13281 103.58203 L 106.57422 97.193359 L 108.77148 83.273438 z M 391.21484 83.289062 L 393.42578 97.201172 L 380.87305 103.60742 L 394.79102 105.80469 L 397.00391 119.71875 L 403.39258 107.16211 L 417.3125 109.35742 L 407.34375 99.398438 L 413.73047 86.84375 L 401.18164 93.244141 L 391.21484 83.289062 z M 55.494141 150.05469 L 50.107422 163.07617 L 36.0625 161.97852 L 46.78125 171.12305 L 41.396484 184.14258 L 53.404297 176.77539 L 64.126953 185.92188 L 60.828125 172.2207 L 72.837891 164.85156 L 58.791016 163.75586 L 55.494141 150.05469 z M 444.48633 150.0625 L 441.20508 163.76367 L 427.15625 164.87891 L 439.17578 172.23438 L 435.89453 185.9375 L 446.60352 176.7793 L 458.62109 184.13477 L 453.22266 171.12109 L 463.92969 161.96484 L 449.88477 163.07617 L 444.48633 150.0625 z M 31.828125 232.14258 L 31.835938 246.23242 L 18.439453 250.59375 L 31.841797 254.94141 L 31.847656 269.0293 L 40.123047 257.62695 L 53.529297 261.97461 L 45.240234 250.57812 L 53.513672 239.17578 L 40.117188 243.53711 L 31.828125 232.14258 z M 468.15039 232.14258 L 459.87695 243.54492 L 446.4707 239.19922 L 454.75977 250.59375 L 446.48438 261.99609 L 459.88086 257.63477 L 468.17188 269.0293 L 468.16406 254.93945 L 481.55859 250.57812 L 468.1582 246.23047 L 468.15039 232.14258 z " /></g></svg>
